<?xml version="1.0" encoding="UTF-8"?>
<svg width="48px" height="48px" viewBox="0 0 48 48" version="1.1" xmlns="http://www.w3.org/2000/svg" xmlns:xlink="http://www.w3.org/1999/xlink">
    <title>Icon</title>
    <g id="Page-1" stroke="none" stroke-width="1" fill="none" fill-rule="evenodd">
        <g id="Medium" transform="translate(-39.000000, -12.000000)" fill-rule="nonzero">
            <g id="Icon" transform="translate(39.000000, 12.000000)">
                <rect id="Background" fill="#466EB5" x="0" y="0.0102087805" width="47.9999062" height="47.9531707" rx="10"></rect>
                <g id="Keys" transform="translate(6.468750, 4.167805)">
                    <g id="Group" transform="translate(0.140625, 3.793171)">
                        <g fill="#FFFFFF" id="Shape">
                            <path d="M10.3307344,13.7806361 C10.3307344,14.7892917 9.391875,15.6069776 8.23378125,15.6069776 L2.12840625,15.6069776 C0.970265625,15.6069776 0.031453125,14.7892917 0.031453125,13.7806361 L0.031453125,1.86755122 C0.031453125,0.85889561 0.9703125,0.0412097561 2.12840625,0.0412097561 L8.23378125,0.0412097561 C9.39192187,0.0412097561 10.3307344,0.85889561 10.3307344,1.86755122 L10.3307344,13.7806361 Z"></path>
                            <path d="M34.74975,13.7806361 C34.74975,14.7892917 33.8108906,15.6069776 32.65275,15.6069776 L26.5474687,15.6069776 C25.3893281,15.6069776 24.4504687,14.7892917 24.4504687,13.7806361 L24.4504687,1.86755122 C24.4504687,0.85889561 25.3893281,0.0412097561 26.5474687,0.0412097561 L32.65275,0.0412097561 C33.8108906,0.0412097561 34.74975,0.85889561 34.74975,1.86755122 L34.74975,13.7806361 Z"></path>
                        </g>
                        <path d="M4.79690625,4.89417366 L4.79690625,8.30760585 C4.79690625,9.59939122 5.41289063,10.1468722 6.24042187,10.1468722 C7.159875,10.1468722 7.74825,9.58225171 7.74825,8.30760585 L7.74825,4.89417366 L8.55735938,4.89417366 L8.55735938,8.25623415 C8.55735938,10.0270829 7.55521875,10.7542946 6.21285938,10.7542946 C4.94409375,10.7542946 3.98789063,10.0784546 3.98789063,8.29046634 L3.98789063,4.89417366 L4.79690625,4.89417366 L4.79690625,4.89417366 Z" id="Shape" fill="#000000"></path>
                        <path d="M32.0465625,7.76433951 C32.0465625,9.74901073 30.7498125,10.8013112 29.1679687,10.8013112 C27.5309062,10.8013112 26.3813906,9.62074537 26.3813906,7.87555902 C26.3813906,6.04476878 27.6046406,4.84715707 29.2599844,4.84715707 C30.9522187,4.84715707 32.0465625,6.05333854 32.0465625,7.76433951 Z M27.2366719,7.85841951 C27.2366719,9.09035707 27.9540937,10.1938888 29.2140469,10.1938888 C30.4832344,10.1938888 31.2005625,9.10744976 31.2005625,7.79857171 C31.2005625,6.65223805 30.5567812,5.45448585 29.2232812,5.45448585 C27.898875,5.45448585 27.2366719,6.59224976 27.2366719,7.85841951 Z" id="Shape" fill="#000000"></path>
                    </g>
                    <g id="Group" opacity="0.1" transform="translate(6.984375, 3.746341)" fill="#000000">
                        <path d="M7.85175,0.0130185366 L0.015046875,0.0130185366 L0.015046875,13.9689834 C0.015046875,14.8110673 0.375421875,15.5601951 0.856453125,15.6538537 L7.85175,15.6538537 L7.85175,0.0130185366 Z" id="Shape"></path>
                        <path d="M13.4521875,0.0130185366 L21.2889375,0.0130185366 L21.2889375,13.9689834 C21.2889375,14.8110673 20.9285625,15.5601951 20.4474844,15.6538068 L13.4521875,15.6538068 L13.4521875,0.0130185366 Z" id="Shape"></path>
                    </g>
                    <path d="M27.6273281,17.3179785 C27.5930156,18.4848702 27.4951406,19.3627785 24.8546719,21.0768702 C22.2137344,22.791758 22.8737344,25.4961483 22.8737344,29.0579824 C22.8737344,32.6193483 22.8737344,37.7640117 22.8737344,37.7640117 C22.8737344,37.7640117 23.0720156,39.4128702 20.7610781,39.4128702 C18.9634219,39.4128702 16.3722188,39.4128702 14.5745625,39.4128702 C12.263625,39.4128702 12.4619063,37.7640117 12.4619063,37.7640117 C12.4619063,37.7640117 12.4619063,32.6193483 12.4619063,29.0579824 C12.4619063,25.4961483 13.1219062,22.791758 10.4809687,21.0768702 C7.84003125,19.3627785 7.74253125,18.4849171 7.7083125,17.3179785 C7.7083125,17.3179785 7.77440625,5.84152976 7.77440625,3.20316878 C7.77440625,0.565276098 9.5540625,0.135102439 10.6131563,0.0374634146 L24.7224844,0.0374634146 C25.7815781,0.135102439 27.5612813,0.565276098 27.5612813,3.20316878 C27.5612344,5.84148293 27.6273281,17.3179785 27.6273281,17.3179785 Z" id="Shape" fill="#FFFFFF"></path>
                    <path d="M21.2005781,8.51529366 L23.7414375,8.51529366 L23.7414375,6.96014049 L18.4460625,6.96014049 L18.4460625,5.43050927 L16.8894375,5.43050927 L16.8894375,6.96014049 L11.5941094,6.96014049 L11.5941094,8.51529366 L19.6995,8.51529366 C19.4548594,10.4707434 17.3806875,12.5180254 17.3806875,12.5180254 C16.4619844,11.7021659 15.619875,9.99406829 15.619875,9.99406829 L14.1142031,9.99406829 C14.5480312,11.498318 16.3854375,13.5633483 16.3854375,13.5633483 L12.4809844,17.2855727 L13.6037812,18.30528 L17.3806875,14.5831024 C17.610375,14.7616156 19.3967344,16.5462322 19.3967344,16.5462322 L20.0091094,15.0930263 C19.4475937,14.5831024 18.3758906,13.4613541 18.3758906,13.4613541 C20.0956406,11.8884995 21.1026094,8.8231961 21.2005781,8.51529366 Z" id="Shape" fill="#232323"></path>
                    <path d="M15.6297188,29.5104 L16.37475,29.5104 L16.37475,32.2907005 L16.4004375,32.2907005 C16.5546094,32.0683083 16.7087344,31.8630088 16.8542813,31.674802 L18.6185625,29.5104 L19.5433594,29.5104 L17.4537188,31.9570888 L19.7060156,35.276441 L18.8240156,35.276441 L16.9228125,32.4447688 L16.3747969,33.0778068 L16.3747969,35.276441 L15.6297656,35.276441 L15.6297656,29.5104 L15.6297188,29.5104 Z" id="Shape" fill="#000000"></path>
                    <g id="Group" transform="translate(0.000000, 24.023415)" fill="#FFFFFF">
                        <path d="M10.3205156,13.7507122 C10.3205156,14.7593678 9.38165625,15.5770537 8.2235625,15.5770537 L2.1181875,15.5770537 C0.960046875,15.5770537 0.021234375,14.7593678 0.021234375,13.7507122 L0.021234375,1.83758049 C0.021234375,0.828924878 0.96009375,0.0112390244 2.1181875,0.0112390244 L8.2235625,0.0112390244 C9.38170312,0.0112390244 10.3205156,0.828924878 10.3205156,1.83758049 L10.3205156,13.7507122 Z" id="Shape"></path>
                        <path d="M35.0412656,13.7507122 C35.0412656,14.7593678 34.1024062,15.5770537 32.9442656,15.5770537 L26.8389375,15.5770537 C25.6807969,15.5770537 24.7419375,14.7593678 24.7419375,13.7507122 L24.7419375,1.83758049 C24.7419375,0.828924878 25.6807969,0.0112390244 26.8389375,0.0112390244 L32.9442187,0.0112390244 C34.1023594,0.0112390244 35.0412656,0.828924878 35.0412656,1.83758049 L35.0412656,13.7507122 L35.0412656,13.7507122 Z" id="Shape"></path>
                    </g>
                    <path d="M5.04810938,29.309362 L5.79309375,29.309362 L5.79309375,33.1676254 C5.79309375,34.6989424 5.03953125,35.1694829 4.04620313,35.1694829 C3.77217188,35.1694829 3.4381875,35.1096351 3.24979688,35.0325541 L3.361125,34.4251317 C3.51525,34.4850732 3.73790625,34.5363512 3.98620313,34.5363512 C4.65417188,34.5363512 5.0480625,34.2369717 5.0480625,33.1077307 L5.0480625,29.309362 L5.04810938,29.309362 Z" id="Shape" fill="#000000"></path>
                    <polygon id="Shape" fill="#000000" points="28.6963594 29.3564722 29.4413437 29.3564722 29.4413437 34.4979512 31.9075781 34.4979512 31.9075781 35.1225132 28.6963594 35.1225132"></polygon>
                </g>
            </g>
        </g>
    </g>
</svg>