<?xml version="1.0" encoding="UTF-8"?>
<svg width="68px" height="68px" viewBox="0 0 68 68" version="1.1" xmlns="http://www.w3.org/2000/svg" xmlns:xlink="http://www.w3.org/1999/xlink">
    <title>Icon</title>
    <g id="Page-1" stroke="none" stroke-width="1" fill="none" fill-rule="evenodd">
        <g id="Medium" transform="translate(-605.000000, -4572.000000)">
            <g id="Premium" transform="translate(0.000000, 4357.000000)">
                <g id="Row" transform="translate(39.000000, 176.000000)">
                    <g id="Card" transform="translate(510.000000, 0.000000)">
                        <g id="Icon" transform="translate(56.000000, 39.000000)">
                            <polygon id="Path" points="0 0 68 0 68 68 0 68"></polygon>
                            <path d="M33.9716667,5.66666667 C18.3316667,5.66666667 5.66666667,18.36 5.66666667,34 C5.66666667,49.64 18.3316667,62.3333333 33.9716667,62.3333333 C49.64,62.3333333 62.3333333,49.64 62.3333333,34 C62.3333333,18.36 49.64,5.66666667 33.9716667,5.66666667 Z M53.6066667,22.6666667 L45.2483333,22.6666667 C44.3416667,19.125 43.0383333,15.725 41.3383333,12.58 C46.5516667,14.365 50.8866667,17.9916667 53.6066667,22.6666667 Z M34,11.4466667 C36.3516667,14.8466667 38.1933333,18.615 39.4116667,22.6666667 L28.5883333,22.6666667 C29.8066667,18.615 31.6483333,14.8466667 34,11.4466667 Z M12.07,39.6666667 C11.6166667,37.8533333 11.3333333,35.955 11.3333333,34 C11.3333333,32.045 11.6166667,30.1466667 12.07,28.3333333 L21.6466667,28.3333333 C21.42,30.2033333 21.25,32.0733333 21.25,34 C21.25,35.9266667 21.42,37.7966667 21.6466667,39.6666667 L12.07,39.6666667 Z M14.3933333,45.3333333 L22.7516667,45.3333333 C23.6583333,48.875 24.9616667,52.275 26.6616667,55.42 C21.4483333,53.635 17.1133333,50.0366667 14.3933333,45.3333333 L14.3933333,45.3333333 Z M22.7516667,22.6666667 L14.3933333,22.6666667 C17.1133333,17.9633333 21.4483333,14.365 26.6616667,12.58 C24.9616667,15.725 23.6583333,19.125 22.7516667,22.6666667 L22.7516667,22.6666667 Z M34,56.5533333 C31.6483333,53.1533333 29.8066667,49.385 28.5883333,45.3333333 L39.4116667,45.3333333 C38.1933333,49.385 36.3516667,53.1533333 34,56.5533333 Z M40.63,39.6666667 L27.37,39.6666667 C27.115,37.7966667 26.9166667,35.9266667 26.9166667,34 C26.9166667,32.0733333 27.115,30.175 27.37,28.3333333 L40.63,28.3333333 C40.885,30.175 41.0833333,32.0733333 41.0833333,34 C41.0833333,35.9266667 40.885,37.7966667 40.63,39.6666667 Z M41.3383333,55.42 C43.0383333,52.275 44.3416667,48.875 45.2483333,45.3333333 L53.6066667,45.3333333 C50.8866667,50.0083333 46.5516667,53.635 41.3383333,55.42 L41.3383333,55.42 Z M46.3533333,39.6666667 C46.58,37.7966667 46.75,35.9266667 46.75,34 C46.75,32.0733333 46.58,30.2033333 46.3533333,28.3333333 L55.93,28.3333333 C56.3833333,30.1466667 56.6666667,32.045 56.6666667,34 C56.6666667,35.955 56.3833333,37.8533333 55.93,39.6666667 L46.3533333,39.6666667 Z" id="Shape" fill="#FFFFFF" fill-rule="nonzero"></path>
                        </g>
                    </g>
                </g>
            </g>
        </g>
    </g>
</svg>