<?xml version="1.0" encoding="UTF-8"?>
<svg width="450px" height="242px" viewBox="0 0 450 242" version="1.1" xmlns="http://www.w3.org/2000/svg" xmlns:xlink="http://www.w3.org/1999/xlink">
    <title>Chat</title>
    <g id="Page-1" stroke="none" stroke-width="1" fill="none" fill-rule="evenodd">
        <g id="Medium" transform="translate(-279.000000, -3858.000000)">
            <g id="Users" transform="translate(0.000000, 3493.000000)">
                <g id="Chat" transform="translate(279.000000, 365.000000)">
                    <g id="UI-/-Social-/-Chat-2" transform="translate(141.000000, 0.597145)" fill-rule="nonzero">
                        <g id="Chat-2" transform="translate(39.858425, 36.366214)">
                            <rect id="Background-Copy-2" fill="#D8DEED" x="0" y="0" width="137.179413" height="41.7043741" rx="20"></rect>
                            <g id="Group" transform="translate(12.076801, 8.706862)" fill="#F2F6FB">
                                <path d="M104.326408,24.4038832 C97.7057711,24.4038832 92.3386847,19.0083322 92.3386847,12.3525828 C92.3386847,5.69683344 97.7057711,0.301282508 104.326408,0.301282508 C110.947045,0.301282508 116.314131,5.69683344 116.314131,12.3525828 C116.314131,19.0083322 110.947045,24.4038832 104.326408,24.4038832 Z M104.32025,12.1897274 C105.952736,12.1897274 107.276127,10.8772961 107.276127,9.25833004 C107.276127,7.639364 105.952736,6.32693269 104.32025,6.32693269 C102.687764,6.32693269 101.364373,7.639364 101.364373,9.25833004 C101.364373,10.8772961 102.687764,12.1897274 104.32025,12.1897274 Z M104.32025,13.6554261 C101.361368,13.6554261 98.9627228,16.0342062 98.9627228,18.9685839 L109.677777,18.9685839 C109.677777,16.0342062 107.279132,13.6554261 104.32025,13.6554261 Z M0.697522438,11.1474528 L70.0964758,11.1474528 C70.4633623,11.1474528 70.7607829,11.4461998 70.7607829,11.8147228 L70.7607829,15.300703 C70.7607829,15.669226 70.4633623,15.967973 70.0964758,15.967973 L0.697522438,15.967973 C0.330635766,15.967973 0.0332153542,15.669226 0.0332153542,15.300703 L0.0332153542,11.8147228 C0.0332153542,11.4461998 0.330635766,11.1474528 0.697522438,11.1474528 Z M0.697522438,18.980798 L76.0903372,18.980798 C76.4572241,18.980798 76.7546443,19.279545 76.7546443,19.648068 L76.7546443,23.1340482 C76.7546443,23.5025712 76.4572241,23.8013181 76.0903372,23.8013181 L0.697522438,23.8013181 C0.330635766,23.8013181 0.0332153542,23.5025712 0.0332153542,23.1340482 L0.0332153542,19.648068 C0.0332153542,19.279545 0.330635766,18.980798 0.697522438,18.980798 Z" id="Combined-Shape"></path>
                            </g>
                            <g id="Text" transform="translate(12.110016, 11.719687)" fill="#E1E5F0">
                                <rect id="Title" x="9.44037144e-14" y="0.301282508" width="77.9202013" height="4.82052012" rx="2"></rect>
                            </g>
                        </g>
                        <g id="Chat-1">
                            <rect id="Background-Copy" fill="#F2F6FB" x="0" y="0" width="137.179413" height="41.7043741" rx="20"></rect>
                            <g id="Group" transform="translate(12.110016, 8.809986)" fill="#D8DEED">
                                <path d="M11.9877233,24.1026007 C5.36708653,24.1026007 4.97379915e-13,18.7070497 4.97379915e-13,12.0513003 C4.97379915e-13,5.39555094 5.36708653,-1.42108547e-14 11.9877233,-1.42108547e-14 C18.60836,-1.42108547e-14 23.9754466,5.39555094 23.9754466,12.0513003 C23.9754466,18.7070497 18.60836,24.1026007 11.9877233,24.1026007 Z M11.9815652,11.8884449 C13.614051,11.8884449 14.9374422,10.5760136 14.9374422,8.95704753 C14.9374422,7.33808149 13.614051,6.02565018 11.9815652,6.02565018 C10.3490794,6.02565018 9.02568824,7.33808149 9.02568824,8.95704753 C9.02568824,10.5760136 10.3490794,11.8884449 11.9815652,11.8884449 Z M11.9815652,13.3541436 C9.02268308,13.3541436 6.62403821,15.7329237 6.62403821,18.6673014 L17.3390922,18.6673014 C17.3390922,15.7329237 14.9404473,13.3541436 11.9815652,13.3541436 Z M30.6336153,9.64104027 L100.032568,9.64104027 C100.399455,9.64104027 100.696875,9.93978722 100.696875,10.3083103 L100.696875,13.7942904 C100.696875,14.1628134 100.399455,14.4615604 100.032568,14.4615604 L30.6336153,14.4615604 C30.2667286,14.4615604 29.9693082,14.1628134 29.9693082,13.7942904 L29.9693082,10.3083103 C29.9693082,9.93978722 30.2667286,9.64104027 30.6336153,9.64104027 Z M30.6336153,17.4743855 L112.020292,17.4743855 C112.387178,17.4743855 112.684599,17.7731324 112.684599,18.1416555 L112.684599,21.6276356 C112.684599,21.9961587 112.387178,22.2949056 112.020292,22.2949056 L30.6336153,22.2949056 C30.2667286,22.2949056 29.9693082,21.9961587 29.9693082,21.6276356 L29.9693082,18.1416555 C29.9693082,17.7731324 30.2667286,17.4743855 30.6336153,17.4743855 Z" id="Combined-Shape"></path>
                            </g>
                            <g id="Text" transform="translate(42.079325, 10.617681)" fill="#E1E5F0">
                                <rect id="Title" x="0" y="0" width="53.9447548" height="4.82052012" rx="2"></rect>
                            </g>
                        </g>
                    </g>
                    <g id="Interior-/-Window-/-Window-2" transform="translate(316.000000, 78.597145)" fill-rule="nonzero">
                        <g id="Window-2">
                            <rect id="Rectangle" fill="#F2F6FB" x="4.69" y="100.052846" width="126.965" height="49.3638211"></rect>
                            <path d="M27.805,4.63821138 L27.805,17.2276423 C27.805,29.8527369 17.456062,40.0873984 4.69,40.0873984 L4.69,27.4979675 C4.69,14.8728728 15.038938,4.63821138 27.805,4.63821138 Z M106.195,4.63821138 C118.961062,4.63821138 129.31,14.8728728 129.31,27.4979675 L129.31,40.0873984 C116.543938,40.0873984 106.195,29.8527369 106.195,17.2276423 L106.195,4.63821138 Z M0,145.441057 L134,145.441057 L134,151.735772 L0,151.735772 L0,145.441057 Z" id="Combined-Shape" fill="#E1E5F0"></path>
                            <path d="M13.7992052,38.2438535 C11.0039917,39.4303517 7.92458335,40.0873984 4.69,40.0873984 L4.69,80.1747967 L25.125,80.1747967 L13.7992052,38.2438535 Z M129.31,40.0873984 C126.075417,40.0873984 122.996008,39.4303517 120.200795,38.2438535 L108.875,80.1747967 L129.31,80.1747967 L129.31,40.0873984 Z M134,151.735772 L134,163 L0,163 L0,151.735772 L134,151.735772 Z M0,145.441057 L0,33.1300813 C0,14.8328426 14.9984609,0 33.5,0 L100.5,0 C119.001539,0 134,14.8328426 134,33.1300813 L134,145.441057 L0,145.441057 Z M129.31,145.441057 L129.31,33.1300813 C129.31,17.394456 116.411323,4.63821138 100.5,4.63821138 L33.5,4.63821138 C17.5886764,4.63821138 4.69,17.394456 4.69,33.1300813 L4.69,145.441057 L129.31,145.441057 Z" id="Combined-Shape" fill="#D8DEED"></path>
                        </g>
                    </g>
                    <g id="Woman" transform="translate(342.000000, 131.597145)">
                        <path d="M31.9787351,33.4491167 L39.2144115,31.2940932 C49.7360145,29.7358456 58.9963527,34.2116634 61.6516468,43.8926915 L73.2391137,92.8280188 L73.334941,93.2327103 L57.5639009,93.2327103 L30.0242247,93.2327103 L19.8307646,58.8452382 C17.1422793,49.1310559 22.4196764,36.1677615 31.9787351,33.4491167 Z" id="Path" fill="#FF5645" fill-rule="nonzero"></path>
                        <path d="M59.9588968,62.1938129 L41.6041763,58.1158457 C41.0067351,57.9832288 40.6416321,57.3864531 40.7743968,56.7896774 L41.3386468,54.303112 C41.4714115,53.7063363 42.0688527,53.34164 42.6662939,53.4742569 L61.0210145,57.5522242 C61.6184557,57.684841 61.9835586,58.2816167 61.8507939,58.8783924 L61.2865439,61.3649578 C61.1537792,61.9285793 60.556338,62.3264298 59.9588968,62.1938129 Z" id="Path" fill="#FF4B38" fill-rule="nonzero"></path>
                        <path d="M26.303044,36.9084043 C26.303044,36.9084043 25.6724117,39.4281239 29.0247205,38.7318856 C32.3770292,38.0356473 33.3395733,37.7041052 33.3395733,37.7041052 L32.4766027,35.416465 L26.303044,36.9084043 Z" id="Path" fill="#482D1F" fill-rule="nonzero"></path>
                        <path d="M64.1409851,88.628965 C66.7298968,83.6558342 69.4626373,71.5683827 72.3392057,52.36661 L54.3181208,53.5898192 C52.3918831,60.8142031 51.4287645,64.4263949 51.4287645,64.4263949 L44.6577645,32.2999697 C42.9982057,29.3160913 39.6127057,31.04011 36.0280586,34.2229136 C35.8289115,34.4218389 31.6136321,32.2336613 31.5472498,32.2999697 C34.0033968,46.4236613 32.9412792,61.376208 35.3974263,75.4998996 C36.8910733,83.438016 39.620323,89.6241532 43.585175,94.058311 L43.585175,94.058311 C44.8511993,95.4741902 46.5085088,96.4840106 48.3482018,96.9604853 C55.0778887,98.7034539 60.3421497,95.9262806 64.1409851,88.628965 Z" id="Path" fill="#DB9E75" fill-rule="nonzero"></path>
                        <line x1="51.5615292" y1="64.4595491" x2="54.8474557" y2="75.5330538" id="Path" stroke="#482D1F" stroke-width="3" stroke-linecap="round" stroke-linejoin="round"></line>
                        <path d="M43.9607498,36.1458576 C43.8279851,36.212166 43.628838,36.2784744 43.4628821,36.2453202 L34.7999851,36.4773996 L28.7259999,36.6100164 C26.668147,37.4388716 22.353294,38.8313482 21.8886176,35.8806239 C21.8886176,35.8806239 27.5974999,33.5266753 31.6136321,31.8026567 L31.9123527,31.5374231 C32.1778821,31.3053436 32.4102204,31.1727268 32.7421321,31.0732642 C32.8085145,31.04011 32.8748968,31.04011 32.9412792,31.04011 L34.5344557,30.8080306 L37.986338,30.3107175 L40.243338,29.9791754 C40.243338,29.9791754 40.243338,29.9791754 40.243338,29.9791754 L41.9028968,29.747096 C43.429691,29.5150165 44.7905292,30.7417221 44.757338,32.2668155 L44.7241468,34.289222 C44.9564851,35.0186146 44.6245733,35.8806239 43.9607498,36.1458576 Z" id="Path" fill="#DB9E75" fill-rule="nonzero"></path>
                        <path d="M73.5586083,47.2316482 C73.2001443,54.8082853 71.7617369,57.4788844 64.4821625,57.0476937 C60.7320787,56.8320986 53.7281134,58.8000417 51.4394593,56.0589007 C50.3916418,54.796128 43.7649155,31.5816274 51.04449,32.0128181 C58.3792129,32.4132096 73.9170724,39.6242118 73.5586083,47.2316482 Z" id="Path" fill="#FF5645" fill-rule="nonzero"></path>
                        <path d="M28.8010298,35.8829603 C28.8010298,35.8829603 28.1699381,38.4028848 31.522267,37.7059845 C34.874596,37.0090842 35.837171,36.6773476 35.837171,36.6773476 L34.9746657,34.3897949 L28.8010298,35.8829603 Z" id="Path" fill="#482D1F" fill-rule="nonzero" transform="translate(32.295493, 36.108813) scale(-1, 1) rotate(10.000000) translate(-32.295493, -36.108813) "></path>
                        <path d="M35.3478016,89.5684534 C38.5388902,86.3293845 35.8682932,75.2053016 27.336011,56.196205 C25.382623,51.2719356 24.0625225,51.1307389 23.3757094,55.7726144 C22.3454898,62.7354277 25.4634445,64.1539248 25.4634445,64.1539248 L17.2463006,32.6868125 C15.5873665,29.7031499 13.6541492,30.768768 10.0690156,33.9523615 C9.86983731,34.1513314 5.65511676,31.9638832 5.58872399,32.0302065 C8.04209522,46.1539051 6.97716185,61.1071569 9.43053307,75.2308555 C10.5673816,81.2790548 11.7411928,86.1748331 12.9519669,89.9181911 L12.9519671,89.9181911 C14.0727235,93.3832409 17.2526533,95.7700638 20.8965647,95.8813246 C26.2242221,96.0439959 31.0413012,93.9397055 35.3478016,89.5684534 Z" id="Path" fill="#DB9E75" fill-rule="nonzero" transform="translate(21.119721, 63.407949) scale(-1, 1) rotate(10.000000) translate(-21.119721, -63.407949) "></path>
                        <line x1="14.5492054" y1="65.1535417" x2="17.8329099" y2="76.2267928" id="Path" stroke="#482D1F" stroke-width="3" stroke-linecap="round" stroke-linejoin="round" transform="translate(16.191058, 70.690167) scale(-1, 1) rotate(10.000000) translate(-16.191058, -70.690167) "></line>
                        <path d="M40.6414266,35.8123213 C40.5086537,35.8786573 40.3095006,35.9450058 40.1435567,35.9118821 L31.4809063,36.1456195 L25.4070999,36.2793978 C23.349158,37.1086728 19.0341844,38.5020182 18.5700863,35.5512832 C18.5700863,35.5512832 24.2792258,33.196168 28.295552,31.4713264 L28.5943131,31.2060269 C28.8598779,30.9738891 29.0922336,30.8412236 29.4241532,30.7416944 C29.4905396,30.7085264 29.5569197,30.7085138 29.6232999,30.7085011 L31.2164669,30.4761104 L34.6683282,29.9781231 L36.9253156,29.64614 C36.9253156,29.64614 36.9253156,29.64614 36.9253156,29.64614 L38.584863,29.4137366 C40.11165,29.1813585 41.4722086,30.4078462 41.4387278,31.9329972 L41.405152,33.955478 C41.6373434,34.6848508 41.3052784,35.5469523 40.6414266,35.8123213 Z" id="Path" fill="#DB9E75" fill-rule="nonzero" transform="translate(30.024532, 33.364397) scale(-1, 1) rotate(10.000000) translate(-30.024532, -33.364397) "></path>
                        <path d="M30.1786748,32.3174025 C33.5310039,31.6205023 34.7967104,29.7119513 34.5322914,29.9212156 L25.1099412,31.5826301 C26.2542109,32.5370786 27.9437888,32.7820027 30.1786748,32.3174025 Z" id="Path-Copy" fill="#482D1F" fill-rule="nonzero" transform="translate(29.838076, 31.225425) scale(-1, 1) rotate(10.000000) translate(-29.838076, -31.225425) "></path>
                        <path d="M17.3566727,58.2314608 C15.3482081,58.1964029 11.8456325,57.3863117 10.6507289,56.2749747 C9.38944189,55.1066457 11.0214761,38.618772 19.4519943,36.6812606 L17.3566727,58.2314608 Z" id="Path" fill="#FF5645" fill-rule="nonzero" transform="translate(14.861916, 47.456361) rotate(-1.000000) translate(-14.861916, -47.456361) "></path>
                        <path d="M50.6806583,14.1047688 C55.3594978,16.8554702 60.3696883,21.5291668 59.5723276,24.51349 C59.007519,26.6688315 56.9162981,27.8630543 54.7255112,29.0573049 C52.6674976,30.1852051 48.5515812,32.0431254 42.4781046,31.8458768 C40.7191497,31.6805832 38.8938266,31.4821515 37.134881,31.2837012" id="Path" fill="#482D1F" fill-rule="nonzero" transform="translate(48.395709, 22.982584) rotate(15.000000) translate(-48.395709, -22.982584) "></path>
                        <path d="M20.9708092,14.6774252 C18.2485964,17.3307177 15.5592026,21.3102682 16.5875162,23.2330693 C17.3172886,24.5922899 18.9434055,25.0560306 20.6027111,25.519762 C22.1624599,25.9503644 25.282022,26.5794726 29.3977258,25.484156 C30.59263,25.0859431 31.7543547,24.6545827 32.949268,24.2232131" id="Path" fill="#482D1F" fill-rule="nonzero" transform="translate(24.656274, 20.385870) rotate(15.000000) translate(-24.656274, -20.385870) "></path>
                        <path d="M45.5933842,20.5066753 C44.863011,21.302639 43.9999939,21.7007595 43.4025419,21.899866 C43.0374292,22.0325944 42.7718364,22.3310785 42.7053666,22.6626638 L42.6699138,28.5012672 C42.6699138,28.5012672 41.6416368,28.7306324 41.4424768,28.8301579 C40.9113745,29.1287159 39.6168211,29.8253667 36.6959012,30.9535072 C33.9077362,32.0816108 34.0737074,31.9820946 33.8745567,32.0484634 C31.7835115,32.6127093 29.991331,32.5800517 29.6594533,32.5469874 C26.8716579,32.3488237 23.6205795,27.2767571 22.1623193,19.9495371 C22.0297309,19.3527538 21.9967086,18.7559427 21.9304975,18.1591409 L21.6666424,12.2241688 C21.6006347,10.89792 21.866514,9.57157873 22.4974228,8.41091924 C22.763071,7.91349506 23.02871,7.44922757 23.32751,7.08442088 C26.7472216,2.50784674 33.0529358,3.00344086 34.1813147,3.13575333 C34.3140695,3.13571636 34.446815,3.16883608 34.5795698,3.1687991 C35.8406572,3.46685802 36.9690453,3.56601381 38.1638477,3.53252439 C38.6948669,3.53237651 39.1261999,3.96329322 39.1592407,4.4937909 L39.3228181,12.9818553 C39.3557849,13.7776065 40.2849484,14.2083845 40.9156723,13.7108587 C40.9156723,13.7108587 40.948861,13.7108494 40.9488703,13.6776928 C41.0484548,13.6113517 41.7455562,13.1138073 42.6416696,13.0472444 C44.2347641,12.914174 45.8938479,14.1736658 46.4907916,15.7981769 C47.1540757,17.5552962 46.6225574,19.3459049 45.5933842,20.5066753 Z" id="Path" fill="#DB9E75" fill-rule="nonzero" transform="translate(34.220433, 17.807655) rotate(15.000000) translate(-34.220433, -17.807655) "></path>
                        <path d="M23.3060989,15.4310858 C23.2398324,15.0332241 22.9080286,14.7349064 22.5097642,14.7350173 C22.2442546,14.7350913 22.0118967,14.8677827 21.9122012,15.332004 C21.6795846,16.3930825 22.7080091,17.9180034 23.1396286,17.3210629 C23.4716265,16.9230903 23.3723192,15.9947309 23.3060989,15.4310858 Z" id="Path" fill="#482D1F" fill-rule="nonzero" transform="translate(22.625842, 16.095177) rotate(15.000000) translate(-22.625842, -16.095177) "></path>
                        <path d="M29.0641281,16.7681085 C28.9978616,16.3702468 28.6660578,16.0719291 28.2677934,16.07204 C28.0022838,16.072114 27.7699259,16.2048054 27.6702304,16.6690267 C27.4376137,17.7301052 28.4660383,19.2550261 28.8976577,18.6580856 C29.2296649,18.2269563 29.1635463,17.2985877 29.0641281,16.7681085 Z" id="Path" fill="#482D1F" fill-rule="nonzero" transform="translate(28.390681, 17.432200) rotate(15.000000) translate(-28.390681, -17.432200) "></path>
                        <path d="M25.9955058,22.8524342 C26.2278452,22.7860561 26.7921085,22.5869589 26.8917763,22.2222077 C26.8917948,22.1558943 26.9250112,22.056415 26.891841,21.9901109 C26.7591416,21.7912078 26.3276608,21.890798 25.7302457,21.9572777 C24.6681796,22.0570435 23.8053011,21.9578138 23.8053011,21.9578138 C23.8053011,21.9578138 24.0706259,22.6208735 24.2365232,22.7866107 C24.5682623,23.3170252 25.6304023,22.9520059 25.9955058,22.8524342 Z" id="Path" fill="#482D1F" fill-rule="nonzero" transform="translate(25.355936, 22.470136) rotate(15.000000) translate(-25.355936, -22.470136) "></path>
                        <path d="M21.8226563,12.9132214 C21.4907878,12.8470005 21.3581439,12.4491573 21.5905295,12.2169958 C21.8893018,11.9516592 22.3872247,11.6199537 23.0510079,11.5866122 C24.4117631,11.5199199 25.9050328,12.3152643 24.4446006,12.7798645 C23.5152246,13.1116902 22.4532139,13.0125159 21.8226563,12.9132214 Z" id="Path" fill="#482D1F" fill-rule="nonzero" transform="translate(23.259395, 12.295570) rotate(15.000000) translate(-23.259395, -12.295570) "></path>
                        <path d="M51.4143509,7.10801499 C50.4521929,5.98095584 49.3571321,5.38444057 48.892555,5.15247319 C46.3373764,3.89323095 44.3790582,4.55690992 39.3344036,4.45884476 C38.3055539,4.45913129 36.7457035,4.39325233 34.854003,4.19483907 C34.721239,4.22803273 34.5884934,4.19491302 34.4557386,4.19494999 C33.3273598,4.06263751 27.2539202,3.73276211 24.0333778,8.17665406 C24.0333593,8.24296743 23.4690035,8.77363147 23.5353624,8.83992635 C23.5353624,8.83992635 23.5685234,8.93938715 23.6680525,9.07198615 C23.6348823,9.00568203 23.6017213,8.90622123 23.5685511,8.8399171 C24.2322512,9.10498571 25.0286506,9.56895743 25.9246992,9.73449129 C28.446911,10.1979824 30.6042874,9.79950143 31.8987576,9.40126078 C32.2968002,10.1969102 32.8275698,11.0919928 33.5242922,11.9538724 C35.548082,14.5395298 38.0036853,15.8319565 39.5633878,16.4283423 C39.4303558,17.4230798 39.2973237,18.4178172 39.1643008,19.379398 C39.3302443,19.3793517 39.4629991,19.3793148 39.6289519,19.3461119 C39.6289519,19.3461119 42.1183077,18.6159717 42.9809181,19.6767452 C43.1799764,19.9419432 43.2462706,20.2403348 43.2462152,20.4392749 C43.5109946,23.0585789 41.8174096,26.5073452 42.5473577,27.2365889 C43.3104667,28.0652934 47.3600057,26.2073915 50.181951,22.9572511 C50.9455406,22.0618081 53.0039147,19.6407972 53.5359969,15.8276309 C53.6027255,14.5676585 54.1681257,10.2902893 51.4143509,7.10801499 Z" id="Path" fill="#482D1F" fill-rule="nonzero" transform="translate(38.579055, 15.782410) rotate(15.000000) translate(-38.579055, -15.782410) "></path>
                        <path d="M28.0410411,14.5876559 C27.7091726,14.521435 27.5765287,14.1235918 27.842103,13.891421 C28.1408753,13.6260844 28.6387982,13.2943789 29.3357702,13.2610282 C30.6965253,13.1943358 32.1897857,14.022837 30.7293627,14.4542805 C29.7667981,14.7861154 28.7047874,14.6869411 28.0410411,14.5876559 Z" id="Path" fill="#482D1F" fill-rule="nonzero" transform="translate(29.515389, 13.970064) rotate(15.000000) translate(-29.515389, -13.970064) "></path>
                        <path d="M37.2979151,21.3090756 L38.7260921,17.4956597 C38.7260921,17.4956597 39.1910297,16.4345164 40.2864878,15.6052944 C40.3860724,15.5389533 41.0831738,15.041409 41.9792871,14.974846 C43.5723817,14.8417757 45.2314655,16.1012674 45.8284092,17.7257785 C46.4917118,19.4165844 45.9602027,21.1740365 44.9642182,22.3347976 C43.9682337,23.4955588 42.6406026,23.7943386 42.2091217,23.8939288 L40.4833186,23.8612528" id="Path" fill="#DB9E75" fill-rule="nonzero" transform="translate(41.710265, 19.429561) rotate(15.000000) translate(-41.710265, -19.429561) "></path>
                        <path d="M25.0228067,14.5725042 L25.0886387,16.52873 L24.6893853,20.0766059 C24.6893299,20.275546 24.8220293,20.4744491 25.0211522,20.5075503 C25.4525961,20.5405868 25.8508605,20.5404759 26.6142006,20.5402956" id="Path" stroke="#482D1F" stroke-width="2" stroke-linecap="round" stroke-linejoin="round" transform="translate(25.651793, 17.556400) rotate(15.000000) translate(-25.651793, -17.556400) "></path>
                        <path d="M43.7580461,27.4867116 L44.1887505,30.1722827 L40.2059402,30.7702121 C39.6417045,30.8698393 39.1439942,30.4389411 39.0777739,29.875296 L38.9785406,28.6816831 L39.3110838,26.3274663 L43.7580461,27.4867116 Z" id="Path" fill="#482D1F" fill-rule="nonzero" transform="translate(41.583646, 28.556029) rotate(15.000000) translate(-41.583646, -28.556029) "></path>
                    </g>
                    <g id="-" transform="translate(0.000000, 14.597145)" fill-rule="nonzero">
                        <g id="Interior-/-Window-/-Window-1">
                            <rect id="Rectangle-Copy-16" fill="#F2F6FB" x="4.02" y="97.402439" width="126.965" height="49.3638211"></rect>
                            <path d="M0,150.079268 L0,33.1300813 C0,14.8328426 14.9984609,0 33.5,0 L100.5,0 C119.001539,0 134,14.8328426 134,33.1300813 L134,150.079268 L134,163 L0,163 L0,150.079268 Z M25.125,5.86075783 L25.125,77.1930894 L4.69,77.1930894 L4.69,55.1615854 L4.69,145.441057 L129.31,145.441057 L129.31,77.1930894 L109.545,77.1930894 L109.545,6.07067715 C106.700402,5.14121848 103.659599,4.63821138 100.5,4.63821138 L33.5,4.63821138 C30.5871502,4.63821138 27.7752656,5.06572152 25.125,5.86075783 L25.125,5.86075783 Z" id="Shape" fill="#D8DEED"></path>
                            <path d="M36.515,4.63821138 L36.515,71.5609756 L25.125,71.5609756 L25.125,5.86075783 C27.7752656,5.06572152 30.5871502,4.63821138 33.5,4.63821138 L36.515,4.63821138 Z M109.545,71.5609756 L99.495,71.5609756 L99.495,4.63821138 L100.5,4.63821138 C103.659599,4.63821138 106.700402,5.14121848 109.545,6.07067715 L109.545,71.5609756 Z M0,145.441057 L134,145.441057 L134,152.067073 L0,152.067073 L0,145.441057 Z" id="Shape" fill="#E1E5F0"></path>
                        </g>
                    </g>
                    <g id="Man" transform="translate(21.000000, 64.597145)">
                        <path d="M72.7881026,80.1531699 C72.8132461,81.8067137 72.8340516,83.512942 72.8340516,85.2395674 C72.8340516,85.2395674 73.5647085,92.6306331 70.2435407,95.7238101 C69.8782122,96.0819674 69.4464604,96.3424456 69.0811319,96.5703641 C68.3172633,97.0262004 67.6530297,97.2215592 67.6530297,97.2215592 C67.6530297,97.2215592 67.619818,97.2541189 67.5866063,97.2541189 C62.2727377,98.6867483 57.9220078,98.2634714 55.630402,98.3285911 C48.2574093,98.4913899 42.2793071,98.4588298 37.0982852,98.296031 C33.9431757,98.198352 20.5588691,99.0774653 18.8650735,96.6029238 C18.8318618,96.537804 18.7986501,96.4726847 18.7654385,96.4075653 C18.4665334,95.7238101 18.2340516,94.8772564 18.0679932,93.867904 C18.0347815,93.7702246 18.0015699,93.6399855 18.0015699,93.5423061 C17.4527628,90.2559342 17.4007841,85.4823569 17.9580567,79.7639554 L2.00939973,78.4462924 C0.96542363,78.3600403 0.165989618,77.4746726 0.179656271,76.4200624 C0.250939917,71.0041688 0.542304394,67.2941574 1.05392679,65.2900289 C3.41930162,56.0243763 7.93948394,52.0165708 8.33870154,50.5814644 C10.6082515,42.2933961 12.8642586,39.352249 13.7764872,38.4652504 C14.8244404,37.4134091 15.8333908,36.6953383 16.5056379,36.2389147 C21.0424367,33.2082088 25.7990982,32.8235702 28.2243407,32.7993034 C28.2913336,32.7670352 28.3577468,32.7682025 28.4241601,32.7693697 L40.2154085,32.8093768 C41.1749377,32.7851465 41.3699607,32.7474797 41.1808853,32.9667304 C42.6226624,32.7673403 44.2710277,32.5671717 46.0654385,32.3950772 C48.7349816,32.435746 51.1574228,32.5820527 53.3327616,32.8339973 L63.2490249,32.9746254 C63.3154483,32.9746254 63.3818716,32.9746254 63.448295,33.0080659 C65.8727476,33.0749469 70.6220176,33.543114 75.1055943,36.6530818 C75.7698278,37.121249 76.7661782,37.8569403 77.7957403,38.9270368 C78.6924556,39.8299307 80.8971401,42.8102741 83.0226876,51.1369622 C83.3969696,52.5788653 87.8469965,56.6654918 90.0514097,65.9712991 C90.5282165,67.9841131 90.7552309,71.6986795 90.7324534,77.1149978 C90.7280153,78.1696905 89.913357,79.0408755 88.868045,79.1087687 L72.7881022,80.1531699 L72.7881026,80.1531699 Z" id="Combined-Shape" fill="#DE3190" fill-rule="nonzero"></path>
                        <path d="M84.0241336,96.3379846 L83.3931117,96.0035794 L72.3668344,90.0846084 C72.3668344,90.0846084 45.6314329,83.8042072 30.2544256,80.928323 C27.5974913,79.0222137 11.7887322,79.4505248 11.3569804,79.0157981 C10.260995,89.6498817 8.86694437,100.26668 22.2116208,100.26668 L89.1719439,99.1135473 L84.0241336,96.3379846 Z" id="Path" fill="#F2A98A" fill-rule="nonzero" transform="translate(49.933472, 89.641239) scale(-1, 1) translate(-49.933472, -89.641239) "></path>
                        <path d="M30.9873363,69.4852515 C30.3231027,67.311618 27.1347815,57.3129042 26.3709129,55.2395923" id="Path" stroke="#482D1F" stroke-width="3" stroke-linecap="round" stroke-linejoin="round" transform="translate(28.679125, 62.362422) scale(-1, 1) translate(-28.679125, -62.362422) "></path>
                        <polyline id="Path" stroke="#482D1F" stroke-width="3" stroke-linecap="round" stroke-linejoin="round" transform="translate(67.559655, 67.573896) scale(-1, 1) translate(-67.559655, -67.573896) " points="69.8479846 55.2395923 65.2713246 79.9082 65.2713246 79.9082"></polyline>
                        <path d="M43.230737,20.7521498 L50.9807669,23.8389493 L51.0471903,25.4775345 C51.0471903,25.4775345 51.0471903,25.510975 51.0471903,25.510975 L50.8479202,34.6067949 C50.8479202,34.874319 50.6486501,35.1418431 50.3829567,35.2087241 C49.0544896,35.6100103 46.6964604,36.0781775 43.939891,35.4428077 C42.4121538,35.1084026 41.1833217,34.5064733 40.319818,33.9714251 C40.120548,33.8711036 40.0209129,33.63702 40.0209129,33.4029365 L40.374792,22.9424806 C39.4256646,21.9731004 38.0898853,20.5346597 37.2975553,19.3579204 C36.6333217,18.3881455 34.4413509,16.0473095 33.8435407,12.2350908 C33.6774823,10.9643513 33.0464604,6.6839654 35.670183,3.37335447 C36.60011,2.20293646 37.6628837,1.6010072 38.1278472,1.3669236 C40.6187231,0.0293030194 42.5782122,0.63123228 47.5267523,0.430589194 C47.9252925,0.397148679 48.5895261,0.397148679 49.419818,0.330267649 C50.9475553,0.229946106 52.010329,0.0961840482 52.3092341,0.0627435337 C54.7668983,-0.204780582 60.1139786,0.263386621 62.6712779,3.84152167 C62.8041246,4.07560527 62.970183,4.30968887 63.1362414,4.51033196 C62.4720078,4.81129659 61.7081392,5.27946379 60.8446355,5.48010688 C58.3869713,6.01515511 56.2614239,5.64730945 54.9329567,5.27946379 C52.5749275,7.82094289 50.2168983,10.362422 47.8588691,12.8704606 C46.6013016,14.6431858 44.6449607,18.1408378 43.230737,20.7521498 Z" id="Combined-Shape" fill="#F2A98A" fill-rule="nonzero"></path>
                        <polygon id="Path" fill="#482D1F" fill-rule="nonzero" transform="translate(48.905037, 29.456956) scale(-1, 1) translate(-48.905037, -29.456956) " points="46.2979202 27.651168 51.5121538 26.6813931 46.9953655 32.2325185"></polygon>
                        <path d="M39.7232567,9.15856347 L39.8561035,15.1444156 C39.8893151,15.7463448 39.9225268,16.3482741 40.0553735,16.9502033 C40.7860305,21.1971487 42.1477093,24.7418432 43.6754465,27.0157982 C44.8046436,28.7212644 46.0666874,29.7244799 47.2623078,29.8248014 C47.5944246,29.8916824 49.3878553,29.9585635 51.480191,29.4235152 C51.6794611,29.3566342 51.5134027,29.4569558 54.3363954,28.3868593 C55.4323808,27.9855731 56.2958845,27.651168 56.9601181,27.3502033 C58.1557385,26.8485956 58.7867604,26.5141905 59.1188772,26.3135474 C59.3513589,26.2132258 59.4177823,26.1463448 59.4177823,26.1463448 C60.9787312,23.1366985 62.3071983,20.3945763 63.4363954,17.9868593 C64.100629,16.5489172 64.7980743,15.110975 64.4327458,13.3386278 C64.2998991,12.636377 63.9345706,10.8974702 62.4068334,9.99457633 C60.9123078,9.12512296 59.2517239,9.55984964 58.7867604,9.6936117 C58.1557385,9.86081427 57.6575633,10.1283384 57.3586582,10.3289815 L57.3918699,1.76820977 C57.3918699,1.23316154 56.9601181,0.764994338 56.4287312,0.764994338 C55.2663224,0.731553824 54.1039137,0.63123228 52.8750816,0.296827135 C52.7422348,0.263386621 52.6093881,0.263386621 52.4765414,0.229946106 C51.3473443,0.0627435337 45.0371254,-0.606066755 41.5166874,3.94184321 C41.1845706,4.30968887 40.9188772,4.74441556 40.6531837,5.27946379 C40.0221618,6.51676283 39.6900451,7.82094289 39.7232567,9.15856347 Z" id="Path" fill="#F2A98A" fill-rule="nonzero" transform="translate(52.127194, 14.983218) scale(-1, 1) translate(-52.127194, -14.983218) "></path>
                        <path d="M33.0575801,4.51033196 C33.7218139,4.81129659 34.4856825,5.27946379 35.3823978,5.48010688 C37.8732737,6.01515511 40.0652445,5.64730945 41.3937117,5.27946379 C43.7849526,7.82094289 47.0396971,11.1984349 49.4641497,13.739914 C53.980938,13.940557 57.6342226,13.2717467 62.151011,13.4723898 C62.151011,13.4723898 62.5827628,13.0042226 62.8152445,12.3019718 C63.1473613,11.2987564 63.8448066,6.98493003 60.9553905,3.4402355 C60.0254635,2.26981749 58.9294781,1.66788823 58.4645146,1.43380463 C55.940427,0.0961840482 53.9477263,0.698113309 48.8995511,0.497470223 C48.501011,0.464029708 47.8367774,0.464029708 46.9732737,0.397148679 C45.4123248,0.296827135 44.3495511,0.163065077 44.0174343,0.129624563 C41.5265584,-0.137899553 36.0798431,0.330267649 33.4893321,3.9084027 C33.3896971,4.07560527 33.2236387,4.30968887 33.0575801,4.51033196 Z" id="Path" fill="#482D1F" fill-rule="nonzero" transform="translate(48.096911, 6.922402) scale(-1, 1) translate(-48.096911, -6.922402) "></path>
                        <path d="M39.035595,17.0839654 L39.4673468,12.8035795 C39.4673468,12.8035795 39.6666169,11.599721 40.5633322,10.4627435 C40.6297555,10.3958625 41.2275658,9.6936117 42.1242811,9.39264707 C43.7184417,8.85759884 45.7111424,9.6936117 46.7739161,11.1984349 C47.8699015,12.7366985 47.7702665,14.7096889 47.0396096,16.1810715 C46.3089526,17.6524541 45.0469088,18.2543834 44.615157,18.4550265 L42.854938,18.8228722 L39.035595,17.0839654 Z" id="Path" fill="#F2A98A" fill-rule="nonzero" transform="translate(43.314385, 14.026634) scale(-1, 1) translate(-43.314385, -14.026634) "></path>
                        <path d="M62.2372031,15.6125828 C62.2372031,15.2112966 61.9715097,14.8434509 61.5729695,14.7765699 C61.3072761,14.7431294 61.0747943,14.8100104 60.9087359,15.2447371 C60.4769841,16.2813931 61.207641,17.9534188 61.7722396,17.4518111 C62.1043564,17.1174059 62.2039914,16.1810715 62.2372031,15.6125828 Z" id="Path" fill="#482D1F" fill-rule="nonzero" transform="translate(61.507708, 16.156335) scale(-1, 1) translate(-61.507708, -16.156335) "></path>
                        <path d="M56.2842045,15.5457017 C56.2509928,15.1444156 55.918876,14.8100104 55.5203359,14.8100104 C55.2546425,14.8100104 55.0221607,14.910332 54.889314,15.3450586 C54.5571972,16.4151551 55.4871242,18.0202998 55.9852994,17.4518111 C56.3174162,17.0505249 56.3174162,16.1141905 56.2842045,15.5457017 Z" id="Path" fill="#482D1F" fill-rule="nonzero" transform="translate(55.558763, 16.190140) scale(-1, 1) translate(-55.558763, -16.190140) "></path>
                        <path d="M58.8039624,22.4344477 C59.0364441,22.3675667 59.6010427,22.2003641 59.7006777,21.8325185 C59.7006777,21.7656374 59.7338894,21.6653159 59.7006777,21.5984349 C59.567831,21.3643513 59.1692909,21.4981133 58.5714806,21.5315538 C57.5087069,21.5984349 56.6452033,21.4981133 56.6452033,21.4981133 C56.6452033,21.4981133 56.877685,22.1669236 57.0437434,22.3675667 C57.4090719,22.8691744 58.4718456,22.5347693 58.8039624,22.4344477 Z" id="Path" fill="#482D1F" fill-rule="nonzero" transform="translate(58.180321, 22.049965) scale(-1, 1) translate(-58.180321, -22.049965) "></path>
                        <path d="M60.4528149,13.2717467 C60.1206981,13.2048657 60.0210631,12.770139 60.2535448,12.5360554 C60.5524499,12.2685313 61.0838368,12.0010072 61.7480704,12.0010072 C63.1097492,12.0010072 64.5710631,12.9039011 63.0433258,13.3051873 C62.1466105,13.5727114 61.0838368,13.4055088 60.4528149,13.2717467 Z" id="Path" fill="#482D1F" fill-rule="nonzero" transform="translate(61.910769, 12.724302) scale(-1, 1) translate(-61.910769, -12.724302) "></path>
                        <path d="M53.5369166,13.5058304 C53.2047998,13.4389493 53.1051647,13.0042226 53.3708582,12.770139 C53.6697633,12.5026149 54.2011501,12.2350908 54.8985954,12.2350908 C56.2602742,12.2350908 57.7215881,13.1714252 56.1938509,13.5392709 C55.2307122,13.806795 54.2011501,13.6395924 53.5369166,13.5058304 Z" id="Path" fill="#482D1F" fill-rule="nonzero" transform="translate(55.032017, 12.958385) scale(-1, 1) translate(-55.032017, -12.958385) "></path>
                        <path d="M58.5572826,13.7064734 L58.5572826,15.6794638 L58.0591075,19.2575988 C58.0258958,19.4582419 58.1919542,19.658885 58.3912243,19.6923255 C58.8229761,19.725766 59.2215162,19.7592066 59.9853848,19.7592066" id="Path" stroke="#482D1F" stroke-width="2" stroke-linecap="round" stroke-linejoin="round" transform="translate(59.020120, 16.732840) scale(-1, 1) translate(-59.020120, -16.732840) "></path>
                        <path d="M41.6900814,12.9707821 C41.8561398,14.0408786 41.6568697,15.1778561 41.1919062,16.08075 C40.4612493,17.5521326 39.1992055,18.1540619 38.7674537,18.3547049" id="Path" stroke="#482D1F" stroke-width="2" stroke-linecap="round" stroke-linejoin="round" transform="translate(40.257687, 15.662744) scale(-1, 1) translate(-40.257687, -15.662744) "></path>
                        <path d="M35.2849547,61.7443623 C38.1516856,49.8286221 40.0809141,42.7661182 41.0726404,40.5568502 C42.0525108,38.3739932 42.1941261,39.9708019 42.8818941,40.8780685 C43.2382604,41.3481678 43.0940095,40.1877616 43.6481178,40.2861389 C44.7304565,40.4782995 45.3677547,41.2150104 45.5600118,42.4962717 C46.5188473,43.0558452 46.9227896,43.7666246 46.7718383,44.6286104 C46.662442,45.2533036 47.5288995,46.5475161 45.7034272,54.2279783 C45.0549316,56.9564481 46.776094,60.6873029 46.1096127,63.6101938 L46.137189,63.6149454 C44.4939837,69.8322065 39.1119162,79.3841109 29.9909859,92.270659 C16.3095905,111.600481 4.68368664,101.474511 1.56122888,99.3008777 C-0.520409624,97.8517885 -0.520409624,90.8671589 1.56122888,78.3469878 L16.6755676,79.6177274 L35.2849547,61.7443623 Z" id="Combined-Shape" fill="#F2A98A" fill-rule="nonzero"></path>
                        <line x1="16.4406209" y1="79.6177274" x2="13.1694172" y2="81.5685597" id="Shape" stroke="#482D1F" stroke-width="3" stroke-linecap="round" stroke-linejoin="round"></line>
                        <polyline id="Shape-Copy" stroke="#482D1F" stroke-width="3" stroke-linecap="round" stroke-linejoin="round" points="32.7475553 88.2829582 24.4446355 98.6495177 24.4446355 98.6495177"></polyline>
                    </g>
                    <g id="UI-/-Social-/-Chat-5" transform="translate(107.000000, 206.597145)" fill-rule="nonzero">
                        <g id="Input">
                            <rect id="Background" fill="#D8DEED" x="0" y="0" width="156" height="33" rx="16.5"></rect>
                            <path d="M120.591006,11.9072165 L140.633833,11.9072165 C141.701032,11.9072165 142.650627,12.1497355 143.442442,12.5938581 C144.234258,13.0379807 144.868294,13.683707 145.304376,14.4901216 C145.740458,15.2965363 145.978587,16.2636393 145.978587,17.3505155 C145.978587,18.4373916 145.740458,19.4044946 145.304376,20.2109093 C144.868294,21.0173239 144.234258,21.6630502 143.442442,22.1071729 C142.650627,22.5512955 141.701032,22.7938144 140.633833,22.7938144 L120.591006,22.7938144 C119.523807,22.7938144 118.574212,22.5512955 117.782397,22.1071729 C116.990582,21.6630502 116.356545,21.0173239 115.920463,20.2109093 C115.484381,19.4044946 115.246253,18.4373916 115.246253,17.3505155 C115.246253,16.2636393 115.484381,15.2965363 115.920463,14.4901216 C116.356545,13.683707 116.990582,13.0379807 117.782397,12.5938581 C118.574212,12.1497355 119.523807,11.9072165 120.591006,11.9072165 Z" id="Button" fill="#474BFF"></path>
                            <rect id="Input-Field" fill="#FFFFFF" x="12.6937901" y="11.9072165" width="91.5289079" height="10.8865979" rx="4"></rect>
                        </g>
                    </g>
                    <g id="UI-/-Social-/-Chat-3" transform="translate(161.000000, 91.597145)" fill-rule="nonzero">
                        <g id="Group">
                            <g id="Background" fill="#F2F6FB">
                                <rect id="Rectangle" x="0" y="0" width="134" height="99" rx="20"></rect>
                            </g>
                            <g id="Group" transform="translate(9.198795, 15.823490)" fill="#D8DEED">
                                <path d="M12.0904545,24 C5.41308088,24 7.60280727e-13,18.627417 7.60280727e-13,12 C7.60280727e-13,5.37258299 5.41308088,1.42108547e-14 12.0904545,1.42108547e-14 C18.7678282,1.42108547e-14 24.1809091,5.37258299 24.1809091,12 C24.1809091,18.627417 18.7678282,24 12.0904545,24 Z M12.0842437,11.8378378 C13.7307194,11.8378378 15.0654517,10.5309933 15.0654517,8.9189189 C15.0654517,7.30684453 13.7307194,6.00000001 12.0842437,6.00000001 C10.437768,6.00000001 9.10303574,7.30684453 9.10303574,8.9189189 C9.10303574,10.5309933 10.437768,11.8378378 12.0842437,11.8378378 Z M12.0842437,13.2972973 C9.10000482,13.2972973 6.68080427,15.6659514 6.68080427,18.5878379 L17.4876831,18.5878379 C17.4876831,15.6659514 15.0684826,13.2972973 12.0842437,13.2972973 Z M12.0904545,68.4000001 C5.41308088,68.4000001 7.60280727e-13,63.0274171 7.60280727e-13,56.4000001 C7.60280727e-13,49.7725829 5.41308088,44.4000001 12.0904545,44.4000001 C18.7678282,44.4000001 24.1809091,49.7725829 24.1809091,56.4000001 C24.1809091,63.0274171 18.7678282,68.4000001 12.0904545,68.4000001 Z M12.0842437,56.2378377 C13.7307194,56.2378377 15.0654517,54.9309932 15.0654517,53.318919 C15.0654517,51.7068445 13.7307194,50.4 12.0842437,50.4 C10.437768,50.4 9.10303574,51.7068445 9.10303574,53.318919 C9.10303574,54.9309932 10.437768,56.2378377 12.0842437,56.2378377 Z M12.0842437,57.6972973 C9.10000482,57.6972973 6.68080427,60.0659514 6.68080427,62.9878377 L17.4876831,62.9878377 C17.4876831,60.0659514 15.0684826,57.6972973 12.0842437,57.6972973 Z M30.8961364,54.0000002 L94.844591,54.0000002 C95.2146216,54.0000002 95.514591,54.2974752 95.514591,54.6644297 L95.514591,58.1355703 C95.514591,58.5025248 95.2146216,58.7999999 94.844591,58.7999999 L30.8961364,58.7999999 C30.5261056,58.7999999 30.2261364,58.5025248 30.2261364,58.1355703 L30.2261364,54.6644297 C30.2261364,54.2974752 30.5261056,54.0000002 30.8961364,54.0000002 Z M30.8961364,61.7999999 L88.7993635,61.7999999 C89.1693945,61.7999999 89.4693635,62.0974753 89.4693635,62.4644294 L89.4693635,65.9355704 C89.4693635,66.3025248 89.1693945,66.5999999 88.7993635,66.5999999 L30.8961364,66.5999999 C30.5261056,66.5999999 30.2261364,66.3025248 30.2261364,65.9355704 L30.2261364,62.4644294 C30.2261364,62.0974753 30.5261056,61.7999999 30.8961364,61.7999999 Z" id="Combined-Shape"></path>
                            </g>
                            <g id="Group" transform="translate(39.424932, 15.823490)">
                                <rect id="Placeholder" fill="#3ABF7C" x="0" y="0" width="67.67" height="35.9999999" rx="4"></rect>
                                <g id="Icons-/-Mountains" transform="translate(24.895068, 12.600000)" fill="#FFFFFF">
                                    <path d="M9.48332036,11.3692542 L8.84831299,11.3775954 L8.85353658,11.3692542 L0.537208774,11.3692542 C0.166011633,11.3692542 0.0221765829,11.1189326 0.218338601,10.8063296 L5.99638831,1.59845104 C6.19147834,1.28755633 6.51600497,1.28552848 6.7190622,1.5908918 L10.9539477,8.01525508 L12.4770186,5.58317001 C12.6721871,5.27151908 12.9986501,5.26139244 13.2112802,5.56788269 L16.7414281,10.6563243 C16.9517811,10.9595323 16.8250724,11.2144669 16.4515238,11.2259486 L13.5099915,11.3163618 L13.0246013,11.3227377 L13.0528242,11.3692542 C13.0528242,11.3692542 12.7526018,11.3692542 12.3807122,11.3692542 L9.48332036,11.3692542 Z M12.9698689,2.82273754 C12.1912058,2.82273754 11.5599745,2.19084622 11.5599745,1.41136877 C11.5599745,0.631891323 12.1912058,2.08721929e-13 12.9698689,2.08721929e-13 C13.7485321,2.08721929e-13 14.3797633,0.631891323 14.3797633,1.41136877 C14.3797633,2.19084622 13.7485321,2.82273754 12.9698689,2.82273754 Z" id="Mountains"></path>
                                </g>
                            </g>
                            <g id="Text" transform="translate(39.424932, 62.023490)" fill="#E1E5F0">
                                <rect id="Title" x="0" y="0" width="72.5427274" height="4.79999998" rx="2"></rect>
                            </g>
                        </g>
                    </g>
                </g>
            </g>
        </g>
    </g>
</svg>