<?xml version="1.0" encoding="UTF-8"?>
<svg width="68px" height="68px" viewBox="0 0 68 68" version="1.1" xmlns="http://www.w3.org/2000/svg" xmlns:xlink="http://www.w3.org/1999/xlink">
    <title>Icon</title>
    <g id="Page-1" stroke="none" stroke-width="1" fill="none" fill-rule="evenodd">
        <g id="Medium" transform="translate(-95.000000, -4572.000000)">
            <g id="Premium" transform="translate(0.000000, 4357.000000)">
                <g id="Row" transform="translate(39.000000, 176.000000)">
                    <g id="Icon" transform="translate(56.000000, 39.000000)">
                        <path d="M52.7,18.7566667 C48.62,18.7566667 44.7666667,20.3433333 42.0183333,23.0916667 L34,30.2033333 L29.6933333,34 L29.7216667,34 L22.1,40.7716667 C20.2866667,42.585 17.8783333,43.5766667 15.3,43.5766667 C10.0016667,43.5766667 5.695,39.2983333 5.695,34 C5.695,28.7016667 10.0016667,24.4233333 15.3,24.4233333 C17.8783333,24.4233333 20.2866667,25.415 22.2133333,27.3416667 L25.415,30.175 L29.6933333,26.3783333 L26.1233333,23.2333333 C23.2333333,20.3433333 19.38,18.7566667 15.3,18.7566667 C6.85666667,18.7566667 0,25.6133333 0,34 C0,42.3866667 6.85666667,49.2433333 15.3,49.2433333 C19.38,49.2433333 23.2333333,47.6566667 25.9816667,44.9083333 L34,37.825 L34.0283333,37.8533333 L38.3066667,34 L38.2783333,34 L45.9,27.2283333 C47.7133333,25.415 50.1216667,24.4233333 52.7,24.4233333 C57.9983333,24.4233333 62.305,28.7016667 62.305,34 C62.305,39.2983333 57.9983333,43.5766667 52.7,43.5766667 C50.15,43.5766667 47.7133333,42.585 45.7866667,40.6583333 L42.5566667,37.7966667 L38.2783333,41.5933333 L41.8766667,44.7666667 C44.7666667,47.6283333 48.5916667,49.215 52.7,49.215 C61.1433333,49.215 68,42.3866667 68,33.9716667 C68,25.5566667 61.1433333,18.7566667 52.7,18.7566667 L52.7,18.7566667 Z" id="Path" fill="#FFFFFF" fill-rule="nonzero"></path>
                        <polygon id="Path" points="0 0 68 0 68 68 0 68"></polygon>
                    </g>
                </g>
            </g>
        </g>
    </g>
</svg>