<?xml version="1.0" encoding="UTF-8"?>
<svg width="68px" height="68px" viewBox="0 0 68 68" version="1.1" xmlns="http://www.w3.org/2000/svg" xmlns:xlink="http://www.w3.org/1999/xlink">
    <title>Icon</title>
    <g id="Page-1" stroke="none" stroke-width="1" fill="none" fill-rule="evenodd">
        <g id="Medium" transform="translate(-350.000000, -4572.000000)">
            <g id="Premium" transform="translate(0.000000, 4357.000000)">
                <g id="Row" transform="translate(39.000000, 176.000000)">
                    <g id="Card" transform="translate(255.000000, 0.000000)">
                        <g id="Icon" transform="translate(56.000000, 39.000000)">
                            <polygon id="Path" points="0 0 68 0 68 68 0 68"></polygon>
                            <path d="M35.275,45.3333333 L41.1966667,45.3333333 L26.7183333,8.5 L21.4483333,8.5 L6.97,45.3333333 L12.8916667,45.3333333 L16.065,36.8333333 L32.045,36.8333333 L35.275,45.3333333 Z M18.2183333,31.1666667 L24.0833333,15.5266667 L29.9483333,31.1666667 L18.2183333,31.1666667 Z M61.1716667,32.8383333 L38.25,55.76 L27.8516667,45.3333333 L23.8566667,49.3283333 L38.2783333,63.75 L65.1666667,36.8333333 L61.1716667,32.8383333 Z" id="Shape" fill="#FFFFFF" fill-rule="nonzero"></path>
                        </g>
                    </g>
                </g>
            </g>
        </g>
    </g>
</svg>